<?xml version="1.0" encoding="utf-8"?>
<!-- Generator: Adobe Illustrator 25.2.3, SVG Export Plug-In . SVG Version: 6.00 Build 0)  -->
<svg version="1.1" id="Layer_1" xmlns="http://www.w3.org/2000/svg" xmlns:xlink="http://www.w3.org/1999/xlink" x="0px" y="0px"
	 viewBox="0 0 276.7 276.7" style="enable-background:new 0 0 1033.9 276.7;" xml:space="preserve">
<style type="text/css">
	.st0{fill:#FFFFFF;}
</style>
<path class="st0" d="M226.9,213.8c-6.6,0-12.2,4.6-13.6,11l-52.5-2.5c0.2-1,0.3-2,0.3-3c0-1.8-0.3-3.6-0.8-5.4l19.1-11
	c4.9,6.1,13.8,7,19.9,2.1c6.1-4.9,7-13.8,2.1-19.9c-4.9-6.1-13.8-7-19.9-2.1c-5.2,4.2-6.7,11.4-3.7,17.4L159.2,211
	c-4.6-9.7-16.1-13.8-25.7-9.2c-9,4.2-13.3,14.6-10,23.9l-34.3,8.4c-0.2-4.7-2.2-9.1-5.5-12.5l6.2-8.6c7.3,2.5,15.3-1.4,17.8-8.7
	c2.5-7.3-1.4-15.3-8.7-17.8s-15.3,1.4-17.8,8.7c-2.1,6.2,0.3,13,5.9,16.5l-5.7,7.9c-4-3-9.1-4.3-14.1-3.6l-5.9-33.7
	c10.4-2.3,17-12.6,14.7-23c-2.3-10.4-12.6-17-23-14.7c-1.7,0.4-3.3,1-4.9,1.8l-14.9-29.1c3.2-1.6,5.8-4.1,7.7-7.1l12.4,3.3
	c-0.1,0.7-0.2,1.3-0.2,2c0,7.7,6.2,14,13.9,14.1c7.7,0,14-6.2,14.1-13.9c0-7.7-6.2-14-13.9-14.1c-5.8,0-11.1,3.6-13.1,9l-11.7-3.1
	c1.6-3.8,1.9-8,0.9-12l34.3-15.8c6.6,8.4,18.8,9.7,27.2,3.1c7.7-6.2,9.6-17.2,4.2-25.5l22-21.5c2.7,1.7,5.8,2.8,8.9,3v9.5
	c-7.6,0.8-13.2,7.7-12.3,15.3s7.7,13.2,15.3,12.3s13.2-7.7,12.3-15.3c-0.7-6.5-5.8-11.6-12.3-12.3v-9.5c2.8-0.2,5.4-1,7.8-2.3
	l24.1,27.5c-6.5,8.5-4.9,20.6,3.6,27.1c8.5,6.5,20.6,4.9,27.1-3.6c4-5.2,5.1-12.1,2.8-18.3l7.5-4.2c4.9,5.9,13.7,6.6,19.6,1.7
	s6.6-13.7,1.7-19.6c-4.9-5.9-13.7-6.6-19.6-1.7c-5,4.2-6.4,11.3-3.4,17.1l-7,4c-5.1-9.4-16.9-12.8-26.2-7.6c-1.5,0.8-2.9,1.8-4.1,3
	l-23.6-26.9c2.3-1.8,4.2-4.2,5.5-6.8l20.7,3.4c1.7,7.5,9.1,12.2,16.6,10.5c7.5-1.7,12.2-9.1,10.5-16.6c-1.7-7.5-9.1-12.2-16.6-10.5
	c-6.3,1.4-10.8,7-10.8,13.5l-19.2-3.2c3-10.2-2.8-21-13-24.1c-10.2-3-21,2.8-24.1,13c-2.1,7.2,0.1,15,5.6,19.9l-21.4,20.9
	c-3.3-3.8-8-6.2-13-6.6V33.5c7.6-0.8,13.2-7.7,12.3-15.3S99,5,91.4,5.9c-7.6,0.8-13.2,7.7-12.3,15.3c0.7,6.5,5.8,11.6,12.3,12.3
	v14.6c-10.6,0.8-18.6,10.1-17.8,20.7c0.2,2.9,1.1,5.7,2.5,8.2L42.5,92.4C41.3,89.5,39.4,87,37,85l13.1-23.6c1.2,0.3,2.3,0.5,3.5,0.5
	c7.7,0,14-6.2,14-13.9s-6.2-14-13.9-14s-14,6.2-14,13.9c0,5.2,2.9,10,7.5,12.4L34.5,83.3c-9.2-5.4-21.1-2.4-26.5,6.8
	c-5.4,9.2-2.4,21.1,6.8,26.5c4.8,2.8,10.5,3.4,15.7,1.8l15.2,29.5c-3.8,2.8-6.5,7-7.4,11.6l-11-3.2c0.3-1.1,0.4-2.3,0.4-3.4
	c0-7.7-6.2-13.9-13.9-13.9s-13.9,6.2-13.9,13.9c0,7.7,6.2,13.9,13.9,13.9c5.3,0,10.1-3,12.4-7.6l11.7,3.4c0,0.3,0,0.6,0,0.9
	c0,6.6,3.3,12.7,8.9,16.2l-7.5,9.8c-5.8-5.1-14.6-4.5-19.6,1.3c-5.1,5.8-4.5,14.6,1.3,19.6c5.8,5.1,14.6,4.5,19.6-1.3
	c4.3-4.9,4.6-12.1,0.8-17.4l8.1-10.6c2.4,1.1,5.1,1.6,7.8,1.6c0.4,0,0.8,0,1.2-0.1l6,34c-10.2,3-16.1,13.8-13.1,24
	c3,10.2,13.8,16.1,24,13.1c3.9-1.2,7.4-3.5,9.9-6.8l28,12.5c-0.2,1-0.4,2.1-0.4,3.1c0,7.7,6.2,14,13.9,14c7.7,0,14-6.2,14-13.9
	c0-7.7-6.2-14-13.9-14c-5.4,0-10.3,3.1-12.6,7.9L87,244.4c1.2-2.2,2-4.6,2.2-7.1l35.6-8.7c5.1,9.4,16.8,12.8,26.2,7.7
	c1-0.5,1.9-1.1,2.7-1.8l13.3,11.5c-3.2,7-0.2,15.3,6.9,18.6c7,3.2,15.3,0.2,18.6-6.9c3.2-7,0.2-15.3-6.9-18.6c-6-2.7-13-1-17,4.2
	L156,232.4c1.9-2,3.3-4.5,4.2-7.1l52.9,2.5c0.1,7.7,6.3,13.9,14,13.8c7.7-0.1,13.9-6.3,13.8-14C240.8,220,234.6,213.8,226.9,213.8
	L226.9,213.8z"/>
</svg>
